<svg xmlns="http://www.w3.org/2000/svg" viewBox="0 0 96.12 76"><defs><style>.cls-1{fill:#e6e6e6;stroke:#e6e6e6;}.cls-1,.cls-3{stroke-miterlimit:10;stroke-width:2px;}.cls-2,.cls-3{fill:#c01925;}.cls-3{stroke:#c01925;}</style></defs><g id="Layer_2" data-name="Layer 2"><g id="Layer_1-2" data-name="Layer 1"><path class="cls-1" d="M62.13,38.25,52.38,26.67a1.22,1.22,0,0,0-1.92,0,1.85,1.85,0,0,0,0,2.29l8.79,10.43L32.52,71.11l-7-8.32L44.28,40.53a1.83,1.83,0,0,0,0-2.28L25.52,16l7-8.31L43,20.08a1.21,1.21,0,0,0,1.92,0,1.83,1.83,0,0,0,0-2.28L33.49,4.25a1.22,1.22,0,0,0-1.93,0L22.64,14.84a1.82,1.82,0,0,0,0,2.28L41.39,39.39,22.64,61.65a1.82,1.82,0,0,0,0,2.28l8.92,10.6a1.23,1.23,0,0,0,1.93,0l28.64-34A1.83,1.83,0,0,0,62.13,38.25Z"/><path class="cls-1" d="M91.43,38.25l-28.65-34a1.21,1.21,0,0,0-1.92,0L51.93,14.84a1.82,1.82,0,0,0,0,2.28L70.69,39.39,51.93,61.65a1.82,1.82,0,0,0,0,2.28l8.93,10.6a1.26,1.26,0,0,0,1,.47,1.27,1.27,0,0,0,1-.47l28.65-34A1.83,1.83,0,0,0,91.43,38.25ZM61.82,71.11l-1.54-1.83,6.44-7.64a1.81,1.81,0,0,0,0-2.28,1.21,1.21,0,0,0-1.92,0L58.36,67l-3.55-4.21L73.57,40.53a1.83,1.83,0,0,0,0-2.28L54.81,16l7-8.31L88.54,39.39Z"/><path class="cls-2" d="M66.43,34.47,56.68,22.9a1.21,1.21,0,0,0-1.92,0,1.83,1.83,0,0,0,0,2.28l8.79,10.43L36.82,67.33l-7-8.31L48.57,36.75a1.81,1.81,0,0,0,0-2.28L29.82,12.21l7-8.32L47.28,16.31a1.22,1.22,0,0,0,1.93,0,1.83,1.83,0,0,0,0-2.28L37.78.47a1.21,1.21,0,0,0-1.92,0l-8.93,10.6a1.82,1.82,0,0,0,0,2.28L45.69,35.61,26.93,57.88a1.82,1.82,0,0,0,0,2.28l8.93,10.59a1.25,1.25,0,0,0,1,.48,1.24,1.24,0,0,0,1-.48l28.65-34A1.83,1.83,0,0,0,66.43,34.47Z"/><path class="cls-2" d="M95.72,34.47,67.08.47a1.22,1.22,0,0,0-1.93,0l-8.92,10.6a1.82,1.82,0,0,0,0,2.28L75,35.61,56.23,57.88a1.82,1.82,0,0,0,0,2.28l8.92,10.59a1.21,1.21,0,0,0,1.93,0l28.64-34A1.83,1.83,0,0,0,95.72,34.47ZM66.11,67.33l-1.53-1.82L71,57.86a1.83,1.83,0,0,0,0-2.28,1.21,1.21,0,0,0-1.92,0l-6.44,7.65L59.11,59,77.87,36.75a1.83,1.83,0,0,0,0-2.28L59.11,12.21l7-8.32L92.84,35.61Z"/><path class="cls-3" d="M24.87,48.56H0"/><path class="cls-3" d="M30.79,41.45H10.66"/><path class="cls-3" d="M8.29,41.45H5.92"/></g></g></svg>