<svg xmlns="http://www.w3.org/2000/svg" viewBox="0 0 59.88 93"><defs><style>.cls-1,.cls-3{fill:#e6e6e6;}.cls-2,.cls-4{fill:#c01925;}.cls-3{stroke:#e6e6e6;}.cls-3,.cls-4{stroke-miterlimit:10;}.cls-4{stroke:#c01925;}</style></defs><g id="Layer_2" data-name="Layer 2"><g id="Layer_1-2" data-name="Layer 1"><path class="cls-1" d="M52.7,45.9a28,28,0,0,0-10.12-1.72A28,28,0,0,0,32.46,45.9a10,10,0,0,0-3.7,2.37,10,10,0,0,0-3.7-2.37,28,28,0,0,0-10.12-1.72A28,28,0,0,0,4.82,45.9c-3.11,1.26-4.82,3-4.82,5v27c0,2,1.71,3.76,4.82,5a27.22,27.22,0,0,0,9.33,1.72h0c0,3.84,6.28,6.74,14.61,6.74s14.6-2.9,14.6-6.74h0a27.23,27.23,0,0,0,9.34-1.72c3.11-1.25,4.82-3,4.82-5v-27C57.52,48.94,55.81,47.16,52.7,45.9Zm2.57,25.24c0,1-1.31,2.08-3.41,2.93a25.37,25.37,0,0,1-8.5,1.55V71.14h0a27.23,27.23,0,0,0,9.34-1.72A12.08,12.08,0,0,0,55.27,68v3.1ZM27.64,57.66c0,1-1.31,2.08-3.42,2.93a26.11,26.11,0,0,1-9.28,1.56,26.11,26.11,0,0,1-9.28-1.56c-2.11-.85-3.41-2-3.41-2.93v-3.1a12.55,12.55,0,0,0,2.57,1.37,28,28,0,0,0,10.12,1.73,28,28,0,0,0,10.12-1.73,12.92,12.92,0,0,0,2.58-1.37Zm-22.82,5A28,28,0,0,0,14.94,64.4a28,28,0,0,0,10.12-1.73,12.92,12.92,0,0,0,2.58-1.37v3.12a27.14,27.14,0,0,0-7.95,1.37,9.63,9.63,0,0,0-4.77,3.1,26,26,0,0,1-9.26-1.56c-2.11-.85-3.41-2-3.41-2.93V61.3A12.55,12.55,0,0,0,4.82,62.67ZM2.25,68a12.08,12.08,0,0,0,2.57,1.37,27.23,27.23,0,0,0,9.34,1.72h0v4.48a25.37,25.37,0,0,1-8.5-1.55c-2.11-.85-3.41-2-3.41-2.93Zm14.27,2.55c.83-1.94,5.64-4,12.24-4s11.41,2,12.24,3.94a1.41,1.41,0,0,1,.12.56c0,1-1.22,2.08-3.26,2.93a24.33,24.33,0,0,1-9.1,1.56,24.33,24.33,0,0,1-9.1-1.56c-2-.85-3.26-1.94-3.26-2.93A1.33,1.33,0,0,1,16.52,70.59ZM55.27,64.4c0,1-1.31,2.08-3.41,2.93a26,26,0,0,1-9.26,1.56,9.63,9.63,0,0,0-4.77-3.1,27.14,27.14,0,0,0-7.95-1.37V61.3a12.92,12.92,0,0,0,2.58,1.37A28,28,0,0,0,42.58,64.4,28,28,0,0,0,52.7,62.67a12.55,12.55,0,0,0,2.57-1.37Zm0-6.74c0,1-1.31,2.08-3.41,2.93a26.11,26.11,0,0,1-9.28,1.56,26.07,26.07,0,0,1-9.28-1.56c-2.11-.85-3.42-2-3.42-2.93v-3.1a12.92,12.92,0,0,0,2.58,1.37,28,28,0,0,0,10.12,1.73A28,28,0,0,0,52.7,55.93a12.55,12.55,0,0,0,2.57-1.37ZM33.3,48a25.84,25.84,0,0,1,9.28-1.57A25.88,25.88,0,0,1,51.86,48c2.1.85,3.41,2,3.41,2.93S54,53,51.86,53.85a26.11,26.11,0,0,1-9.28,1.56,26.07,26.07,0,0,1-9.28-1.56c-2.11-.85-3.42-2-3.42-2.93S31.19,48.84,33.3,48ZM5.66,48a25.88,25.88,0,0,1,9.28-1.57A25.88,25.88,0,0,1,24.22,48c2.11.85,3.42,2,3.42,2.93S26.33,53,24.22,53.85a26.11,26.11,0,0,1-9.28,1.56,26.11,26.11,0,0,1-9.28-1.56c-2.11-.85-3.41-2-3.41-2.93S3.55,48.84,5.66,48Zm0,32.82c-2.11-.85-3.41-2-3.41-2.93v-3.1a12.08,12.08,0,0,0,2.57,1.37,27.22,27.22,0,0,0,9.33,1.72v4.49A25.36,25.36,0,0,1,5.66,80.81Zm32.2,6.74a24.33,24.33,0,0,1-9.1,1.56,24.33,24.33,0,0,1-9.1-1.56c-2-.85-3.26-1.94-3.26-2.93v-3a9.61,9.61,0,0,0,.85.55,19.59,19.59,0,0,0,6.86,2.16h.17a1.12,1.12,0,0,0,.16-2.23c-5.22-.77-8-2.73-8-4.19v-3c2.54,1.86,7,3,12.36,3s9.81-1.19,12.36-3v3c0,1.46-2.82,3.42-8,4.19a1.12,1.12,0,0,0,.16,2.23h.16a19.64,19.64,0,0,0,6.87-2.16,9.61,9.61,0,0,0,.85-.55v3C41.12,85.61,39.9,86.7,37.86,87.55Zm14-6.74a25.37,25.37,0,0,1-8.5,1.55V77.87a27.23,27.23,0,0,0,9.34-1.72,12.08,12.08,0,0,0,2.57-1.37v3.1C55.27,78.84,54,80,51.86,80.81Z"/><path class="cls-2" d="M55.06,47.54a28,28,0,0,0-10.12-1.72,28,28,0,0,0-10.12,1.72,10.1,10.1,0,0,0-3.7,2.37,10,10,0,0,0-3.69-2.37A28,28,0,0,0,17.3,45.82,28,28,0,0,0,7.18,47.54c-3.1,1.26-4.82,3-4.82,5v27c0,2,1.72,3.76,4.82,5a27.28,27.28,0,0,0,9.34,1.72h0c0,3.84,6.28,6.74,14.6,6.74s14.61-2.9,14.61-6.74h0a27.22,27.22,0,0,0,9.33-1.72c3.11-1.25,4.82-3,4.82-5v-27C59.88,50.58,58.17,48.8,55.06,47.54Zm2.58,25.24c0,1-1.31,2.08-3.42,2.93a25.36,25.36,0,0,1-8.49,1.55V72.78h0a27.22,27.22,0,0,0,9.33-1.72,12.42,12.42,0,0,0,2.58-1.37v3.1ZM30,59.3c0,1-1.31,2.08-3.41,2.93a26.13,26.13,0,0,1-9.29,1.56A26.11,26.11,0,0,1,8,62.23c-2.1-.85-3.41-2-3.41-2.93V56.2a12.55,12.55,0,0,0,2.57,1.37A28,28,0,0,0,17.3,59.3a28,28,0,0,0,10.13-1.73A12.82,12.82,0,0,0,30,56.2Zm-22.82,5A28,28,0,0,0,17.3,66a28,28,0,0,0,10.13-1.73A12.33,12.33,0,0,0,30,62.94v3.12a27.2,27.2,0,0,0-7.95,1.37,9.63,9.63,0,0,0-4.77,3.1A26,26,0,0,1,8,69c-2.1-.85-3.41-2-3.41-2.93v-3.1A12.08,12.08,0,0,0,7.18,64.31ZM4.61,69.68a12.08,12.08,0,0,0,2.57,1.37,27.28,27.28,0,0,0,9.34,1.72h0v4.48A25.37,25.37,0,0,1,8,75.71c-2.1-.85-3.41-2-3.41-2.93Zm14.27,2.55c.84-1.94,5.64-4,12.24-4s11.41,2,12.24,3.94a1.41,1.41,0,0,1,.12.56c0,1-1.22,2.08-3.26,2.93a24.33,24.33,0,0,1-9.1,1.56A24.37,24.37,0,0,1,22,75.71c-2-.85-3.25-1.94-3.25-2.93A1.32,1.32,0,0,1,18.88,72.23ZM57.64,66c0,1-1.31,2.08-3.42,2.93A25.94,25.94,0,0,1,45,70.53a9.67,9.67,0,0,0-4.78-3.1,27.13,27.13,0,0,0-7.94-1.37V62.94a12.08,12.08,0,0,0,2.57,1.37A28,28,0,0,0,44.94,66a28,28,0,0,0,10.12-1.73,12.42,12.42,0,0,0,2.58-1.37Zm0-6.74c0,1-1.31,2.08-3.42,2.93a26.11,26.11,0,0,1-9.28,1.56,26.11,26.11,0,0,1-9.28-1.56c-2.11-.85-3.41-2-3.41-2.93V56.2a12.55,12.55,0,0,0,2.57,1.37A28,28,0,0,0,44.94,59.3a28,28,0,0,0,10.12-1.73,12.92,12.92,0,0,0,2.58-1.37Zm-22-9.67a25.88,25.88,0,0,1,9.28-1.57,25.88,25.88,0,0,1,9.28,1.57c2.11.85,3.42,2,3.42,2.93s-1.31,2.08-3.42,2.93a26.11,26.11,0,0,1-9.28,1.56,26.11,26.11,0,0,1-9.28-1.56c-2.11-.85-3.41-2-3.41-2.93S33.55,50.48,35.66,49.63ZM8,49.63a25.88,25.88,0,0,1,9.28-1.57,25.9,25.9,0,0,1,9.29,1.57c2.1.85,3.41,2,3.41,2.93s-1.31,2.08-3.41,2.93a26.13,26.13,0,0,1-9.29,1.56A26.11,26.11,0,0,1,8,55.49c-2.1-.85-3.41-2-3.41-2.93S5.92,50.48,8,49.63ZM8,82.45c-2.1-.85-3.41-2-3.41-2.93v-3.1a12.08,12.08,0,0,0,2.57,1.37,27.28,27.28,0,0,0,9.34,1.72V84A25.37,25.37,0,0,1,8,82.45Zm32.2,6.74a24.33,24.33,0,0,1-9.1,1.56A24.37,24.37,0,0,1,22,89.19c-2-.85-3.25-1.94-3.25-2.93v-3a8.15,8.15,0,0,0,.84.55,19.64,19.64,0,0,0,6.87,2.16h.16a1.12,1.12,0,0,0,.16-2.23c-5.22-.77-8-2.73-8-4.19v-3c2.54,1.86,7,3,12.35,3s9.82-1.19,12.36-3v3c0,1.46-2.82,3.42-8,4.19a1.12,1.12,0,0,0,.16,2.23h.17a19.59,19.59,0,0,0,6.86-2.16,8.33,8.33,0,0,0,.85-.55v3C43.48,87.25,42.26,88.34,40.22,89.19Zm14-6.74A25.36,25.36,0,0,1,45.73,84V79.51a27.22,27.22,0,0,0,9.33-1.72,12.42,12.42,0,0,0,2.58-1.37v3.1C57.64,80.48,56.33,81.6,54.22,82.45Z"/><path class="cls-3" d="M29.85,26.58l4.95-4.17a.52.52,0,0,0,0-.82.78.78,0,0,0-1,0l-4.46,3.76L15.79,13.91l3.56-3,9.52,8a.78.78,0,0,0,1,0l9.52-8,3.56,3-5.31,4.48a.52.52,0,0,0,0,.82.78.78,0,0,0,1,0l5.79-4.89a.52.52,0,0,0,0-.82L39.86,9.68a.75.75,0,0,0-.49-.17.74.74,0,0,0-.48.17l-9.53,8-9.52-8a.79.79,0,0,0-1,0L14.33,13.5a.56.56,0,0,0-.2.41.54.54,0,0,0,.2.41L28.87,26.58A.78.78,0,0,0,29.85,26.58Z"/><path class="cls-3" d="M29.85,39.11,44.39,26.85a.52.52,0,0,0,0-.82l-4.53-3.82a.75.75,0,0,0-.49-.17.74.74,0,0,0-.48.17l-9.53,8-9.52-8a.79.79,0,0,0-1,0L14.33,26a.56.56,0,0,0-.2.41.54.54,0,0,0,.2.41L28.87,39.11A.78.78,0,0,0,29.85,39.11ZM15.79,26.44l.78-.65,3.27,2.75a.78.78,0,0,0,1,0,.52.52,0,0,0,0-.82L17.55,25l1.8-1.51,9.52,8a.78.78,0,0,0,1,0l9.52-8,3.56,3L29.36,37.88Z"/><path class="cls-2" d="M31.46,28.42l4.95-4.17a.53.53,0,0,0,0-.83.8.8,0,0,0-1,0L31,27.18,17.41,15.75l3.55-3,9.53,8a.77.77,0,0,0,1,0l9.53-8,3.56,3-5.32,4.48a.52.52,0,0,0,0,.82.78.78,0,0,0,1,0L46,16.16a.52.52,0,0,0,0-.82l-4.53-3.82a.79.79,0,0,0-1,0l-9.52,8-9.53-8a.75.75,0,0,0-.49-.17.74.74,0,0,0-.48.17l-4.54,3.82a.52.52,0,0,0,0,.82L30.49,28.42A.8.8,0,0,0,31.46,28.42Z"/><path class="cls-2" d="M31.46,41,46,28.69a.52.52,0,0,0,0-.82l-4.53-3.82a.79.79,0,0,0-1,0l-9.52,8-9.53-8a.75.75,0,0,0-.49-.17.74.74,0,0,0-.48.17l-4.54,3.82a.52.52,0,0,0,0,.82L30.49,41A.8.8,0,0,0,31.46,41Zm-14-12.67.78-.66,3.27,2.76a.77.77,0,0,0,1,0,.52.52,0,0,0,0-.82L19.16,26.8,21,25.28l9.52,8a.77.77,0,0,0,1,0l9.53-8,3.56,3L31,39.71Z"/><path class="cls-4" d="M25.44,10.64V0"/><path class="cls-4" d="M28.48,13.17V4.56"/><path class="cls-4" d="M28.48,3.55v-1"/></g></g></svg>