<svg xmlns="http://www.w3.org/2000/svg" viewBox="0 0 83.93 93.14"><defs><style>.cls-1{fill:#e6e6e6;}.cls-2{fill:#c01925;}</style></defs><g id="Layer_2" data-name="Layer 2"><g id="Layer_1-2" data-name="Layer 1"><path class="cls-1" d="M77.22,16.84A153.33,153.33,0,0,1,40.31,1.19a1.93,1.93,0,0,0-2,0A149,149,0,0,1,1.43,16.84,2,2,0,0,0,0,18.72V38.54A57,57,0,0,0,17.32,80.2c8.5,8.33,18.41,12.94,22,12.94s13.51-4.61,22-12.94A57,57,0,0,0,78.65,38.54V18.72A2,2,0,0,0,77.22,16.84Zm-2.45,21.7A53.26,53.26,0,0,1,58.62,77.43c-8.37,8.19-17.31,11.83-19.3,11.83S28.39,85.62,20,77.43A53.22,53.22,0,0,1,3.88,38.54V20.19A152.62,152.62,0,0,0,39.32,5.11,157.68,157.68,0,0,0,74.77,20.19Z"/><path class="cls-1" d="M62.44,63.47a2,2,0,0,0-2.69.57,47.48,47.48,0,0,1-5.57,7,49.27,49.27,0,0,1-5.57,5A1.94,1.94,0,0,0,51,79a55,55,0,0,0,6-5.33,51.12,51.12,0,0,0,6-7.54A2,2,0,0,0,62.44,63.47Z"/><path class="cls-1" d="M44.11,79l-.11.07a1.94,1.94,0,1,0,1.94,3.35l.13-.07a1.94,1.94,0,0,0-2-3.35Z"/><path class="cls-1" d="M40.22,63.63,50,55.38a1,1,0,0,0,0-1.62,1.53,1.53,0,0,0-1.92,0l-8.82,7.43L12.44,38.59l7-5.92L38.29,48.53a1.55,1.55,0,0,0,1.93,0L59.05,32.67l7,5.92-10.5,8.85a1,1,0,0,0,0,1.62,1.55,1.55,0,0,0,1.93,0L69,39.41a1,1,0,0,0,0-1.63l-9-7.55a1.58,1.58,0,0,0-1.93,0L39.26,46.09,20.43,30.23a1.51,1.51,0,0,0-1-.33,1.56,1.56,0,0,0-1,.33L9.55,37.78a1,1,0,0,0,0,1.63L38.29,63.63A1.55,1.55,0,0,0,40.22,63.63Z"/><path class="cls-2" d="M82.51,15.92A153.16,153.16,0,0,1,45.6.27a2,2,0,0,0-2,0A148.81,148.81,0,0,1,6.71,15.92,2,2,0,0,0,5.29,17.8V37.62A57,57,0,0,0,22.6,79.28c8.51,8.33,18.41,12.94,22,12.94s13.5-4.61,22-12.94A57,57,0,0,0,83.93,37.62V17.8A2,2,0,0,0,82.51,15.92Zm-2.46,21.7A53.22,53.22,0,0,1,63.9,76.51C55.54,84.7,46.6,88.34,44.61,88.34S33.68,84.7,25.32,76.51A53.22,53.22,0,0,1,9.17,37.62V19.27A153,153,0,0,0,44.61,4.19,157.41,157.41,0,0,0,80.05,19.27Z"/><path class="cls-2" d="M67.72,62.55a1.94,1.94,0,0,0-2.68.57,47.55,47.55,0,0,1-5.58,7,50.06,50.06,0,0,1-5.56,5,1.94,1.94,0,0,0,1.18,3.48,1.9,1.9,0,0,0,1.17-.4,53.16,53.16,0,0,0,6-5.33,51.86,51.86,0,0,0,6-7.54A2,2,0,0,0,67.72,62.55Z"/><path class="cls-2" d="M49.39,78.07l-.11.07a1.94,1.94,0,0,0,1,3.62,2,2,0,0,0,1-.26l.12-.08a1.94,1.94,0,1,0-2-3.35Z"/><path class="cls-2" d="M45.49,61.93l9.78-8.24a1,1,0,0,0,0-1.63,1.55,1.55,0,0,0-1.93,0l-8.82,7.43L17.71,36.9l7-5.93L43.56,46.84a1.58,1.58,0,0,0,1.93,0L64.31,31l7,5.93-10.5,8.84a1,1,0,0,0,0,1.63,1.55,1.55,0,0,0,1.93,0l11.47-9.66a1,1,0,0,0,0-1.63l-9-7.54a1.51,1.51,0,0,0-1-.34,1.46,1.46,0,0,0-1,.34L44.52,44.4,25.7,28.54a1.54,1.54,0,0,0-1.93,0l-9,7.54a1.1,1.1,0,0,0-.4.82,1.08,1.08,0,0,0,.4.81L43.56,61.93A1.55,1.55,0,0,0,45.49,61.93Z"/></g></g></svg>