<?xml version="1.0" encoding="UTF-8" standalone="no"?>
<svg
   xmlns:dc="http://purl.org/dc/elements/1.1/"
   xmlns:cc="http://creativecommons.org/ns#"
   xmlns:rdf="http://www.w3.org/1999/02/22-rdf-syntax-ns#"
   xmlns:svg="http://www.w3.org/2000/svg"
   xmlns="http://www.w3.org/2000/svg"
   xmlns:sodipodi="http://sodipodi.sourceforge.net/DTD/sodipodi-0.dtd"
   xmlns:inkscape="http://www.inkscape.org/namespaces/inkscape"
   viewBox="0 0 91.12 75.55"
   version="1.1"
   id="svg18"
   sodipodi:docname="transparent.svg"
   inkscape:version="1.0.1 (3bc2e813f5, 2020-09-07)">
  <metadata
     id="metadata22">
    <rdf:RDF>
      <cc:Work
         rdf:about="">
        <dc:format>image/svg+xml</dc:format>
        <dc:type
           rdf:resource="http://purl.org/dc/dcmitype/StillImage" />
      </cc:Work>
    </rdf:RDF>
  </metadata>
  <sodipodi:namedview
     pagecolor="#ffffff"
     bordercolor="#666666"
     borderopacity="1"
     objecttolerance="10"
     gridtolerance="10"
     guidetolerance="10"
     inkscape:pageopacity="0"
     inkscape:pageshadow="2"
     inkscape:window-width="1787"
     inkscape:window-height="929"
     id="namedview20"
     showgrid="false"
     inkscape:zoom="11.250827"
     inkscape:cx="45.560001"
     inkscape:cy="37.775002"
     inkscape:window-x="0"
     inkscape:window-y="0"
     inkscape:window-maximized="0"
     inkscape:current-layer="svg18" />
  <defs
     id="defs4">
    <style
       id="style2">.cls-1{font-size:20.19px;}.cls-1,.cls-3{fill:none;stroke:#c01925;stroke-miterlimit:10;font-family:OpenSans-Bold, Open Sans;font-weight:700;}.cls-2{fill:#e6e6e6;}.cls-3{font-size:41.44px;stroke-width:2px;}</style>
  </defs>
  <g
     id="Layer_2"
     data-name="Layer 2">
    <g
       id="Layer_1-2"
       data-name="Layer 1">
      <path
         class="cls-2"
         d="M88.05,61.3,65.74,43.85a1.54,1.54,0,0,0-1.17-.32,1.52,1.52,0,0,0-1,.6l-1,1.26-4.05-3.17A28.89,28.89,0,0,0,50.79,6,28.12,28.12,0,0,0,11,11.11a28.88,28.88,0,0,0,.05,35.07l.1.11a4.93,4.93,0,0,1,2-2.58,25.67,25.67,0,0,1,.34-30.65A25,25,0,0,1,48.87,8.54a25.67,25.67,0,0,1,4.57,35.75,25,25,0,0,1-32.8,6.26A4.78,4.78,0,0,1,18.52,53a28.09,28.09,0,0,0,34.21-3.19l4.06,3.17-1,1.26a1.6,1.6,0,0,0,.28,2.23L78.43,73.88a7.81,7.81,0,0,0,11-1.41A8,8,0,0,0,88.05,61.3ZM54.94,47.47q.51-.6,1-1.23T56.86,45l3.78,3-1.93,2.51Zm4.35,7.42,5.77-7.55,5,3.9-5.77,7.55ZM87,70.52a4.69,4.69,0,0,1-6.63.84L66.77,60.75l5.78-7.55L86.12,63.82A4.8,4.8,0,0,1,87,70.52Z"
         id="path10" />
      <path
         class="cls-2"
         d="M47,11.05A21.9,21.9,0,0,0,16,15a22.5,22.5,0,0,0,4,31.28,21.87,21.87,0,0,0,30.94-4A22.5,22.5,0,0,0,47,11.05Zm1.5,29.33a18.75,18.75,0,0,1-26.53,3.39A19.28,19.28,0,0,1,18.5,17,18.76,18.76,0,0,1,45,13.57,19.29,19.29,0,0,1,48.45,40.38Z"
         id="path12" />
    </g>
  </g>
</svg>
